<?xml version="1.0" encoding="UTF-8" standalone="no"?>
<!-- Created with Inkscape (http://www.inkscape.org/) -->

<svg
   xmlns:dc="http://purl.org/dc/elements/1.1/"
   xmlns:cc="http://creativecommons.org/ns#"
   xmlns:rdf="http://www.w3.org/1999/02/22-rdf-syntax-ns#"
   xmlns:svg="http://www.w3.org/2000/svg"
   xmlns="http://www.w3.org/2000/svg"
   xmlns:sodipodi="http://sodipodi.sourceforge.net/DTD/sodipodi-0.dtd"
   xmlns:inkscape="http://www.inkscape.org/namespaces/inkscape"
   version="1.1"
   id="svg2550"
   xml:space="preserve"
   width="816"
   height="816"
   viewBox="0 0 816 816"
   sodipodi:docname="tree--publicdomainvectors-image [Converted].svg"
   inkscape:version="0.92.4 (5da689c313, 2019-01-14)"><metadata
     id="metadata2556"><rdf:RDF><cc:Work
         rdf:about=""><dc:format>image/svg+xml</dc:format><dc:type
           rdf:resource="http://purl.org/dc/dcmitype/StillImage" /><dc:title></dc:title></cc:Work></rdf:RDF></metadata><defs
     id="defs2554"><clipPath
       clipPathUnits="userSpaceOnUse"
       id="clipPath2566"><path
         d="M 0,612 H 612 V 0 H 0 Z"
         id="path2564"
         inkscape:connector-curvature="0" /></clipPath></defs><sodipodi:namedview
     pagecolor="#ffffff"
     bordercolor="#666666"
     borderopacity="1"
     objecttolerance="10"
     gridtolerance="10"
     guidetolerance="10"
     inkscape:pageopacity="0"
     inkscape:pageshadow="2"
     inkscape:window-width="1920"
     inkscape:window-height="1018"
     id="namedview2552"
     showgrid="false"
     inkscape:zoom="0.97826342"
     inkscape:cx="402.81356"
     inkscape:cy="413.18644"
     inkscape:window-x="-8"
     inkscape:window-y="-8"
     inkscape:window-maximized="1"
     inkscape:current-layer="g2558" /><g
     id="g2558"
     inkscape:groupmode="layer"
     inkscape:label="tree--publicdomainvectors-image [Converted]"
     transform="matrix(1.3333333,0,0,-1.3333333,0,816)"><g
       id="g2560"><g
         id="g2562"
         clip-path="url(#clipPath2566)"><path
           d="m 158.024,466.815 c -2.078,3.576 -7.231,5.697 -13.905,5.697 -8.675,0 -17.546,-3.368 -23.396,-8.841 3.216,-2.098 11.483,-4.673 19.639,-4.674 5.907,0 13.712,1.368 17.662,7.818"
           style="fill:#32b659;fill-opacity:1;fill-rule:nonzero;stroke:none"
           id="path2568"
           inkscape:connector-curvature="0" /><path
           d="m 133.93,344.35 c -0.734,0.238 -1.521,0.359 -2.346,0.359 -7.522,0 -17.618,-10.114 -18.787,-21.707 4.111,0.613 13.145,4.717 17.958,10.741 2.73,3.417 3.796,6.984 3.175,10.607"
           style="fill:#32b659;fill-opacity:1;fill-rule:nonzero;stroke:none"
           id="path2570"
           inkscape:connector-curvature="0" /><path
           d="m 486.84,341.897 c -7.036,0 -12.128,-2.133 -15.151,-6.341 2.152,-4.386 8.886,-7.197 17.344,-7.197 h 0.003 c 8.005,0 15.842,2.536 21.184,6.816 -3.48,2.636 -13.767,6.722 -23.38,6.722"
           style="fill:#32b659;fill-opacity:1;fill-rule:nonzero;stroke:none"
           id="path2572"
           inkscape:connector-curvature="0" /><path
           d="m 405.397,506.698 c 1.872,-4.158 7.829,-6.923 15.02,-6.924 5.536,0 10.75,1.638 14.787,4.627 -2.946,2.429 -11.466,6.819 -19.333,6.819 -4.613,0 -8.133,-1.521 -10.474,-4.522"
           style="fill:#32b659;fill-opacity:1;fill-rule:nonzero;stroke:none"
           id="path2574"
           inkscape:connector-curvature="0" /><path
           d="m 210.679,539.911 c 1.472,0 2.877,0.413 4.177,1.229 -0.414,3.964 -5.076,7.009 -10.862,7.009 -1.652,0 -3.306,-0.246 -4.924,-0.734 1.7,-2.732 6.63,-7.504 11.609,-7.504"
           style="fill:#32b659;fill-opacity:1;fill-rule:nonzero;stroke:none"
           id="path2576"
           inkscape:connector-curvature="0" /><path
           d="m 199.07,547.415 c 1.7,-2.732 6.63,-7.504 11.609,-7.504 1.472,0 2.877,0.413 4.177,1.229 -0.414,3.964 -5.076,7.009 -10.862,7.009 -1.652,0 -3.306,-0.246 -4.924,-0.734 m -1.841,0.129 -0.344,0.771 0.796,0.283 c 2.059,0.737 4.183,1.112 6.313,1.112 6.84,0 12.31,-3.932 12.45,-8.949 l 0.009,-0.422 -0.344,-0.24 c -1.67,-1.161 -3.495,-1.748 -5.43,-1.748 -6.554,0 -12.277,6.576 -13.45,9.193 m 237.975,-43.143 c -2.946,2.429 -11.466,6.819 -19.333,6.819 -4.613,0 -8.133,-1.52 -10.474,-4.522 1.872,-4.158 7.829,-6.923 15.02,-6.924 5.536,0 10.75,1.639 14.787,4.627 m -19.333,8.379 c 8.824,0 18.574,-5.215 21.109,-7.894 l 0.58,-0.613 -0.656,-0.53 c -4.406,-3.565 -10.262,-5.529 -16.487,-5.529 -8.057,10e-4 -14.742,3.343 -16.64,8.317 l -0.149,0.394 0.246,0.343 c 2.646,3.657 6.683,5.512 11.997,5.512 M 510.22,335.175 c -3.48,2.635 -13.767,6.722 -23.38,6.722 -7.036,0 -12.128,-2.133 -15.151,-6.341 2.152,-4.386 8.886,-7.197 17.344,-7.197 h 0.003 c 8.005,0 15.842,2.536 21.184,6.816 m 1.755,0.549 0.6,-0.593 -0.637,-0.553 c -5.616,-4.871 -14.178,-7.779 -22.902,-7.779 h -0.003 c -9.476,0 -16.74,3.271 -18.955,8.535 l -0.165,0.389 0.234,0.349 c 3.249,4.831 9.02,7.386 16.693,7.386 10.396,0 22.014,-4.657 25.135,-7.734 m -381.22,-1.981 c 2.73,3.416 3.797,6.985 3.175,10.607 -0.734,0.239 -1.521,0.359 -2.346,0.359 -7.522,0 -17.618,-10.114 -18.787,-21.707 4.111,0.613 13.145,4.717 17.958,10.741 m -18.796,-12.38 -0.842,-0.013 0.05,0.841 c 0.775,12.967 11.875,24.078 20.417,24.078 1.174,0 2.29,-0.205 3.315,-0.611 l 0.392,-0.153 0.086,-0.414 c 0.88,-4.245 -0.263,-8.391 -3.403,-12.321 -5.554,-6.953 -16.115,-11.335 -20.015,-11.407 m 8.763,142.309 c 3.218,-2.1 11.484,-4.674 19.639,-4.674 5.908,0 13.713,1.368 17.662,7.816 -2.078,3.577 -7.228,5.699 -13.904,5.699 -8.675,0 -17.547,-3.369 -23.397,-8.841 m -1.71,-0.672 -0.642,0.547 0.595,0.596 c 6.113,6.125 15.751,9.93 25.154,9.93 7.613,0 13.261,-2.522 15.498,-6.922 l 0.192,-0.374 -0.21,-0.367 c -4.245,-7.415 -12.804,-8.972 -19.237,-8.972 h -0.001 c -9.554,0 -18.687,3.289 -21.349,5.562 M 546.025,335.166 c 0,0 -0.682,0.774 -1.962,2.222 -0.655,0.707 -1.517,1.527 -2.501,2.518 -1.058,0.91 -2.198,2.041 -3.626,3.129 -5.531,4.563 -14.385,9.862 -25.757,14.374 -11.375,4.519 -25.202,8.297 -40.242,10.92 -12.091,2.092 -24.962,3.467 -37.967,4.038 2.41,-1.386 4.781,-2.871 7.042,-4.519 3.187,-2.346 6.261,-4.841 8.979,-7.617 2.78,-2.703 5.211,-5.65 7.39,-8.595 2.114,-2.997 4.01,-5.987 5.49,-8.979 0.772,-1.478 1.49,-2.927 2.067,-4.385 0.618,-1.438 1.215,-2.818 1.651,-4.202 1.017,-2.704 1.664,-5.269 2.28,-7.518 0.514,-2.276 0.904,-4.267 1.215,-5.904 0.454,-3.299 0.713,-5.187 0.713,-5.187 0,0 -0.451,1.845 -1.234,5.071 -0.476,1.59 -1.061,3.516 -1.795,5.693 -0.829,2.148 -1.715,4.58 -2.971,7.102 -0.561,1.289 -1.276,2.569 -2.011,3.887 -0.694,1.342 -1.526,2.661 -2.41,3.999 -1.703,2.705 -3.792,5.35 -6.063,7.956 -2.332,2.554 -4.873,5.065 -7.707,7.302 -2.769,2.308 -5.847,4.311 -8.979,6.161 -3.151,1.834 -6.466,3.356 -9.767,4.719 -3.336,1.292 -6.681,2.37 -9.964,3.212 -3.299,0.796 -6.504,1.451 -9.57,1.83 -0.128,0.017 -0.25,0.03 -0.378,0.044 -10.579,-0.42 -20.942,-1.392 -30.68,-2.963 -14.73,-2.343 -28.113,-6.129 -37.967,-11.03 -4.957,-2.395 -8.866,-5.15 -11.676,-7.718 -0.161,-0.153 -0.305,-0.302 -0.457,-0.451 0.253,-2.302 0.493,-4.629 0.677,-6.981 0.49,-5.857 1.032,-11.932 1.319,-18.054 0.164,-3.065 0.378,-6.167 0.496,-9.268 0.104,-3.103 0.207,-6.215 0.315,-9.329 0.261,-6.236 0.185,-12.469 0.289,-18.617 -0.074,-6.164 -0.082,-12.214 -0.292,-18.125 -0.236,-5.917 -0.388,-11.614 -0.824,-17.134 -0.191,-2.755 -0.377,-5.431 -0.557,-8.021 -0.269,-2.646 -0.528,-5.201 -0.778,-7.652 -0.152,-1.796 -0.371,-3.577 -0.605,-5.335 1.48,-0.222 3.009,-0.402 4.619,-0.497 2.182,-0.133 4.47,-0.156 6.837,-0.078 1.183,0.037 2.39,0.1 3.608,0.181 1.271,0.104 2.553,0.207 3.845,0.313 10.382,0.876 21.565,1.947 32.808,2.579 11.244,0.634 22.569,0.848 33.179,0.056 10.589,-0.771 20.504,-2.635 28.432,-5.929 3.957,-1.654 7.387,-3.635 10.11,-5.793 2.731,-2.153 4.769,-4.419 6.177,-6.45 1.413,-2.03 2.277,-3.766 2.797,-4.968 0.512,-1.207 0.747,-1.863 0.747,-1.863 0,0 -0.293,0.636 -0.905,1.785 -0.622,1.144 -1.627,2.78 -3.179,4.632 -1.544,1.849 -3.705,3.854 -6.49,5.676 -2.781,1.826 -6.209,3.417 -10.106,4.653 -7.816,2.459 -17.451,3.411 -27.738,3.242 -8.236,-0.116 -16.908,-0.902 -25.644,-2.029 1.234,-0.517 2.468,-1.053 3.69,-1.624 6.737,-3.133 13.139,-7.002 17.219,-10.859 2.026,-1.918 3.474,-3.87 3.882,-5.497 0.234,-0.789 0.214,-1.459 0.128,-1.877 -0.098,-0.412 -0.147,-0.635 -0.147,-0.635 0,0 0.01,0.224 0.031,0.648 0.006,0.409 -0.086,1.031 -0.432,1.709 -0.625,1.397 -2.271,2.945 -4.471,4.387 -4.434,2.895 -11.152,5.465 -17.98,7.251 -12.039,3.206 -24.008,2.258 -36.086,0.974 -1.548,-0.274 -3.109,-0.554 -4.632,-0.818 -1.3,-0.226 -2.587,-0.449 -3.866,-0.664 -1.327,-0.228 -2.655,-0.437 -3.974,-0.617 -2.645,-0.359 -5.28,-0.609 -7.891,-0.721 -0.229,-0.011 -0.455,-0.003 -0.683,-0.011 2.154,-1.085 4.421,-2.171 6.825,-3.224 4.232,-1.92 8.833,-3.772 13.611,-5.669 9.361,-3.554 19.325,-7.337 29.31,-11.127 0.39,0.155 1.227,0.487 2.443,0.971 0.433,0.169 0.911,0.357 1.436,0.561 0.572,0.195 1.191,0.404 1.852,0.626 1.323,0.467 2.81,0.934 4.421,1.323 1.6,0.464 3.373,0.803 5.238,1.165 1.865,0.329 3.849,0.612 5.896,0.794 1.021,0.081 2.061,0.16 3.114,0.24 1.049,0.029 2.113,0.059 3.182,0.087 2.133,0 4.299,-0.003 6.444,-0.161 8.596,-0.48 16.926,-2.029 23.155,-3.142 6.218,-1.175 10.363,-1.962 10.363,-1.962 0,0 -4.208,0.271 -10.519,0.676 -6.301,0.342 -14.729,0.845 -22.987,0.282 -2.065,-0.102 -4.107,-0.355 -6.106,-0.6 -0.994,-0.15 -1.978,-0.297 -2.95,-0.444 -0.96,-0.196 -1.907,-0.389 -2.84,-0.579 -1.852,-0.4 -3.62,-0.879 -5.264,-1.384 -1.64,-0.536 -3.188,-1.03 -4.562,-1.625 -0.78,-0.293 -1.487,-0.595 -2.151,-0.892 2.111,-0.876 4.22,-1.754 6.297,-2.66 5.022,-2.229 9.937,-4.518 14.556,-7.025 4.66,-2.419 8.971,-5.154 12.956,-7.86 h 0.003 c 0.372,-0.043 1.08,-0.117 2.13,-0.18 1.564,-0.111 3.84,-0.127 6.585,0.079 5.482,0.381 12.837,1.794 19.824,4.36 3.471,1.309 6.887,2.843 9.812,4.721 2.94,1.838 5.418,4.027 6.89,6.367 0.74,1.17 1.148,2.377 1.365,3.481 0.137,1.111 0.079,2.109 -0.11,2.901 -0.11,0.393 -0.205,0.745 -0.29,1.051 -0.13,0.291 -0.247,0.539 -0.338,0.741 -0.183,0.402 -0.281,0.617 -0.281,0.617 0,0 0.114,-0.206 0.324,-0.598 0.103,-0.193 0.234,-0.434 0.386,-0.715 0.108,-0.305 0.229,-0.658 0.369,-1.05 0.25,-0.799 0.384,-1.817 0.321,-2.995 -0.147,-1.164 -0.491,-2.473 -1.183,-3.754 -1.377,-2.568 -3.808,-5.019 -6.713,-7.131 -2.894,-2.148 -6.286,-3.962 -9.765,-5.555 -6.999,-3.129 -14.471,-5.112 -20.23,-5.919 -1.404,-0.204 -2.699,-0.343 -3.866,-0.433 1.883,-1.531 3.641,-3.086 5.191,-4.713 1.539,-1.44 2.826,-3.004 4.047,-4.485 1.292,-1.416 2.203,-3.018 3.194,-4.402 1.033,-1.361 1.626,-2.874 2.364,-4.142 0.75,-1.269 1.179,-2.561 1.631,-3.693 0.977,-2.235 1.358,-4.118 1.684,-5.375 0.323,-1.256 0.493,-1.926 0.493,-1.926 0,0 -0.215,0.658 -0.627,1.889 -0.41,1.228 -0.918,3.062 -2.042,5.202 -0.524,1.083 -1.029,2.313 -1.855,3.51 -0.816,1.197 -1.484,2.62 -2.59,3.882 -1.066,1.283 -2.045,2.765 -3.407,4.057 -1.285,1.353 -2.626,2.775 -4.22,4.067 -3.016,2.753 -6.721,5.228 -10.671,7.726 -4.058,2.352 -8.406,4.703 -13.117,6.743 -4.659,2.121 -9.62,4.02 -14.693,5.857 -5.088,1.81 -10.311,3.516 -15.571,5.146 -2.312,0.698 -4.625,1.393 -6.931,2.089 0.259,-0.637 0.514,-1.268 0.762,-1.94 2.76,-7.693 4.707,-17.729 8.086,-27.299 1.691,-4.765 3.727,-9.399 6.231,-13.397 1.274,-1.974 2.572,-3.865 4.031,-5.462 1.405,-1.649 2.91,-3.049 4.376,-4.259 1.481,-1.186 2.913,-2.201 4.273,-2.957 1.312,-0.846 2.586,-1.333 3.588,-1.847 1.034,-0.449 1.877,-0.718 2.438,-0.941 0.567,-0.212 0.869,-0.325 0.869,-0.325 0,0 -0.311,0.082 -0.896,0.235 -0.582,0.168 -1.456,0.351 -2.536,0.696 -1.05,0.413 -2.397,0.78 -3.814,1.504 -1.463,0.632 -3.033,1.518 -4.689,2.588 -1.637,1.097 -3.352,2.398 -4.992,3.97 -1.694,1.522 -3.251,3.354 -4.799,5.296 -3.047,3.928 -5.667,8.564 -7.913,13.321 -4.467,9.523 -7.529,19.588 -10.716,26.193 -0.792,1.638 -1.567,3.073 -2.323,4.181 -0.731,1.15 -1.453,1.934 -2.026,2.472 -0.313,0.354 -0.444,0.337 -0.585,0.481 -0.079,0.057 -0.091,0.101 -0.204,0.177 -0.164,0.089 -0.311,0.17 -0.444,0.243 -0.531,0.29 -12.518,4.24 -12.518,4.24 -0.137,0.041 -0.28,0.084 -0.414,0.125 -4.991,1.586 -9.824,3.142 -14.383,4.834 -3.817,1.362 -7.422,2.848 -10.807,4.344 -0.311,-1.398 -0.863,-3.044 -1.259,-4.338 -0.496,-1.521 -0.917,-2.814 -1.258,-3.861 -0.162,-0.465 -0.302,-0.875 -0.43,-1.241 0.985,-1.784 1.992,-3.562 3.044,-5.323 1.765,-2.976 3.617,-5.907 5.512,-8.801 0.536,0.146 1.106,0.293 1.7,0.413 0.933,0.177 1.978,0.402 3.111,0.54 2.268,0.347 4.897,0.526 7.688,0.537 1.398,0.003 2.831,-0.043 4.281,-0.168 1.447,-0.08 2.913,-0.317 4.358,-0.514 1.447,-0.278 2.879,-0.507 4.265,-0.907 1.39,-0.326 2.728,-0.78 4.001,-1.223 1.28,-0.409 2.459,-1.007 3.59,-1.461 1.103,-0.534 2.117,-1.102 3.05,-1.587 0.908,-0.549 1.709,-1.091 2.429,-1.547 0.724,-0.434 1.276,-0.952 1.766,-1.308 0.948,-0.746 1.49,-1.172 1.49,-1.172 0,0 -0.639,0.258 -1.755,0.709 -0.566,0.204 -1.203,0.534 -2.017,0.743 -0.793,0.233 -1.676,0.517 -2.648,0.775 -0.996,0.197 -2.045,0.444 -3.171,0.629 -1.146,0.112 -2.31,0.34 -3.55,0.369 -1.235,0.063 -2.492,0.122 -3.779,0.046 -1.273,0.003 -2.575,-0.169 -3.848,-0.283 -5.128,-0.641 -10.016,-2.194 -13.356,-3.756 -0.362,-0.154 -0.694,-0.317 -1.017,-0.478 9.528,-13.436 19.504,-25.741 26.725,-36.414 2.615,-3.844 4.845,-7.505 6.601,-10.871 1.745,-3.374 2.961,-6.49 3.626,-9.137 0.683,-2.653 0.762,-4.824 0.645,-6.265 -0.014,-0.723 -0.146,-1.27 -0.196,-1.638 -0.062,-0.366 -0.093,-0.556 -0.093,-0.556 0,0 0.012,0.192 0.031,0.562 0.014,0.373 0.085,0.92 0.027,1.636 -0.037,1.427 -0.342,3.517 -1.265,5.998 -0.911,2.485 -2.394,5.353 -4.427,8.434 -2.044,3.077 -4.579,6.398 -7.533,9.883 -3.406,4.052 -7.342,8.351 -11.572,12.894 -0.262,-0.819 -0.566,-1.686 -0.786,-2.694 -0.329,-1.261 -0.652,-2.641 -0.899,-4.14 -0.32,-1.481 -0.463,-3.085 -0.698,-4.736 -0.116,-1.661 -0.338,-3.391 -0.347,-5.151 -0.022,-0.881 -0.046,-1.769 -0.067,-2.666 l 0.079,-2.685 c 0.022,-1.804 0.262,-3.584 0.409,-5.361 0.298,-1.738 0.451,-3.503 0.876,-5.141 0.184,-0.829 0.367,-1.644 0.546,-2.443 0.235,-0.783 0.466,-1.545 0.692,-2.291 0.405,-1.515 0.997,-2.867 1.509,-4.136 0.462,-1.299 1.118,-2.369 1.618,-3.371 0.261,-0.495 0.506,-0.957 0.73,-1.387 0.272,-0.402 0.519,-0.771 0.744,-1.107 0.899,-1.343 1.413,-2.111 1.413,-2.111 0,0 -0.618,0.692 -1.7,1.901 -0.27,0.302 -0.572,0.637 -0.901,1.007 -0.29,0.397 -0.601,0.828 -0.933,1.288 -0.645,0.934 -1.471,1.946 -2.127,3.191 -0.7,1.219 -1.507,2.53 -2.141,4.02 -0.342,0.738 -0.693,1.494 -1.052,2.27 -0.299,0.799 -0.605,1.613 -0.917,2.442 -0.686,1.652 -1.1,3.433 -1.667,5.223 -0.414,1.814 -0.926,3.661 -1.219,5.539 l -0.481,2.819 c -0.11,0.943 -0.219,1.883 -0.326,2.816 -0.253,1.87 -0.284,3.726 -0.402,5.527 -0.004,1.801 -0.086,3.551 0.028,5.215 0.042,1.667 0.182,3.25 0.349,4.717 0.113,1.467 0.427,2.826 0.601,4.029 0.265,1.254 0.585,2.417 0.823,3.342 0.071,0.213 0.124,0.381 0.186,0.566 -8.873,9.51 -18.524,20.029 -27.22,31.657 -3.855,5.136 -7.489,10.511 -10.762,16.048 l -5.756,2.542 c -0.162,-2.296 -0.301,-4.692 -0.421,-7.155 0.19,-0.609 0.406,-1.25 0.62,-1.933 0.593,-1.744 1.374,-3.683 2.373,-5.753 0.997,-2.071 2.224,-4.265 3.677,-6.529 1.43,-2.271 3.127,-4.592 4.928,-6.985 3.638,-4.772 7.935,-9.708 11.834,-15.103 1.941,-2.695 3.794,-5.499 5.303,-8.459 1.523,-2.946 2.723,-6.007 3.546,-9.058 0.747,-3.074 1.146,-6.104 1.201,-8.974 0.018,-1.431 -0.062,-2.823 -0.131,-4.161 -0.171,-1.328 -0.266,-2.62 -0.491,-3.838 -0.24,-1.214 -0.445,-2.381 -0.692,-3.476 -0.293,-1.082 -0.57,-2.11 -0.829,-3.075 -0.572,-1.913 -1.173,-3.545 -1.636,-4.893 -1.079,-2.642 -1.697,-4.151 -1.697,-4.151 0,0 0.493,1.551 1.359,4.263 0.353,1.378 0.82,3.04 1.231,4.966 0.18,0.969 0.372,2 0.573,3.087 0.159,1.092 0.265,2.244 0.409,3.441 0.118,1.199 0.109,2.456 0.172,3.744 -0.033,1.291 -0.063,2.627 -0.191,3.985 -0.266,2.719 -0.875,5.529 -1.792,8.328 -0.993,2.777 -2.331,5.516 -3.964,8.145 -1.618,2.641 -3.574,5.143 -5.637,7.573 -4.131,4.857 -8.776,9.409 -12.925,14.035 -2.067,2.326 -4.047,4.623 -5.793,6.957 -0.686,0.902 -1.331,1.803 -1.951,2.7 -0.152,-6.906 -0.24,-14.093 -0.365,-21.294 -0.095,-5.503 -0.225,-11.003 -0.417,-16.405 0.314,-0.261 0.703,-0.586 1.212,-1.015 1.271,-1.108 3.026,-2.684 4.912,-4.814 0.914,-1.087 1.929,-2.244 2.843,-3.587 0.979,-1.295 1.847,-2.77 2.746,-4.28 0.834,-1.55 1.672,-3.157 2.367,-4.858 0.768,-1.67 1.325,-3.451 1.926,-5.201 0.496,-1.784 1.058,-3.549 1.39,-5.336 0.185,-0.887 0.371,-1.768 0.557,-2.636 0.131,-0.877 0.262,-1.743 0.39,-2.596 0.299,-1.694 0.424,-3.351 0.566,-4.919 0.177,-1.566 0.247,-3.048 0.285,-4.42 0.036,-1.368 0.124,-2.621 0.109,-3.733 -0.013,-1.112 -0.027,-2.079 -0.037,-2.878 -0.021,-1.593 -0.033,-2.505 -0.033,-2.505 0,0 -0.052,0.911 -0.147,2.501 -0.045,0.793 -0.1,1.759 -0.164,2.866 -0.064,1.104 -0.241,2.346 -0.378,3.699 -0.127,1.355 -0.305,2.818 -0.585,4.349 -0.256,1.538 -0.494,3.161 -0.905,4.806 -0.186,0.824 -0.375,1.663 -0.566,2.512 -0.239,0.837 -0.482,1.68 -0.726,2.534 -0.444,1.714 -1.112,3.385 -1.712,5.068 -0.701,1.641 -1.354,3.311 -2.197,4.844 -0.775,1.57 -1.676,3.03 -2.56,4.429 -0.947,1.357 -1.852,2.671 -2.846,3.808 -0.932,1.183 -1.953,2.185 -2.864,3.125 -1.389,1.361 -2.703,2.452 -3.775,3.294 -0.107,-2.296 -0.229,-4.564 -0.369,-6.797 -0.311,-4.497 -0.664,-8.839 -1.194,-12.948 -0.464,-4.107 -1.176,-7.974 -1.929,-11.511 -0.826,-3.528 -1.743,-6.732 -2.91,-9.45 -0.29,-0.677 -0.573,-1.335 -0.844,-1.965 -0.302,-0.62 -0.655,-1.19 -0.96,-1.749 -0.573,-1.144 -1.292,-2.078 -1.941,-2.913 -0.585,-0.886 -1.335,-1.488 -1.92,-2.06 -0.298,-0.277 -0.575,-0.534 -0.828,-0.771 -0.293,-0.182 -0.561,-0.35 -0.801,-0.5 -0.952,-0.593 -1.457,-0.909 -1.457,-0.909 0,0 0.478,0.357 1.374,1.023 0.222,0.166 0.472,0.35 0.747,0.552 0.228,0.253 0.478,0.529 0.749,0.826 0.53,0.605 1.204,1.237 1.703,2.155 0.564,0.862 1.186,1.811 1.652,2.973 0.25,0.567 0.545,1.138 0.786,1.761 0.213,0.636 0.436,1.294 0.664,1.975 0.911,2.717 1.548,5.91 2.075,9.405 0.455,3.512 0.838,7.328 0.966,11.398 0.189,4.061 0.186,8.361 0.134,12.804 -0.161,8.898 -0.694,18.391 -1.304,27.903 -0.076,1.164 -0.152,2.326 -0.232,3.492 -0.789,-0.946 -1.614,-1.909 -2.501,-2.913 -5.99,-6.773 -13.889,-15.496 -19.343,-25.925 -1.344,-2.595 -2.611,-5.244 -3.635,-7.946 -1.082,-2.682 -1.901,-5.415 -2.624,-8.083 -0.359,-1.334 -0.612,-2.674 -0.917,-3.973 -0.225,-1.316 -0.447,-2.604 -0.664,-3.857 -0.329,-2.524 -0.579,-4.929 -0.667,-7.163 -0.14,-2.229 -0.086,-4.284 -0.079,-6.103 0.1,-1.817 0.131,-3.413 0.259,-4.716 0.262,-2.614 0.411,-4.105 0.411,-4.105 0,0 -0.277,1.474 -0.765,4.06 -0.241,1.293 -0.408,2.884 -0.67,4.704 -0.164,1.83 -0.396,3.899 -0.451,6.169 -0.106,2.269 -0.067,4.733 0.049,7.345 0.11,1.303 0.222,2.643 0.338,4.013 0.195,1.357 0.338,2.762 0.591,4.171 0.506,2.819 1.115,5.734 1.996,8.623 0.822,2.911 1.907,5.793 3.084,8.637 4.753,11.413 12.328,21.374 17.636,28.533 2.666,3.588 4.653,6.568 5.567,8.516 0.171,0.438 0.454,0.976 0.481,1.174 0.061,0.286 0.14,0.294 0.211,0.686 0.137,0.691 0.49,7.009 0.49,7.009 l 0.003,-0.005 c -0.11,1.918 -0.219,3.83 -0.314,5.707 -0.222,4.298 -0.387,8.471 -0.475,12.466 -0.192,0.711 -0.293,1.097 -0.293,1.097 l 0.268,0.061 c -0.018,0.996 -0.03,1.981 -0.039,2.951 -0.463,-0.657 -0.908,-1.288 -1.374,-1.955 -1.435,-2.004 -3.011,-3.955 -4.55,-5.987 -3.041,-4.098 -6.496,-8.04 -9.86,-12.159 -1.341,-1.512 -2.681,-3.049 -4.025,-4.582 -0.481,-0.969 -0.996,-2.166 -1.548,-3.536 -0.689,-1.72 -1.414,-3.741 -2.178,-5.974 -3.048,-8.949 -6.585,-21.378 -11.412,-33.388 -1.234,-2.992 -2.486,-5.976 -3.903,-8.843 -1.374,-2.882 -2.891,-5.642 -4.458,-8.255 -1.624,-2.582 -3.239,-5.048 -5.043,-7.195 -1.727,-2.196 -3.614,-4.072 -5.411,-5.71 -0.933,-0.789 -1.862,-1.496 -2.728,-2.186 -0.929,-0.603 -1.809,-1.176 -2.638,-1.712 -0.878,-0.453 -1.697,-0.873 -2.456,-1.262 -0.759,-0.385 -1.517,-0.603 -2.166,-0.873 -1.292,-0.557 -2.402,-0.724 -3.117,-0.935 -0.726,-0.185 -1.113,-0.281 -1.113,-0.281 0,0 0.378,0.128 1.088,0.37 0.698,0.269 1.774,0.52 3.007,1.177 0.619,0.317 1.341,0.588 2.054,1.026 0.707,0.438 1.472,0.915 2.292,1.421 0.761,0.588 1.569,1.213 2.422,1.871 0.786,0.74 1.63,1.494 2.465,2.322 1.606,1.729 3.264,3.671 4.763,5.922 1.56,2.199 2.931,4.714 4.287,7.321 1.307,2.643 2.556,5.426 3.659,8.326 1.146,2.881 2.127,5.887 3.093,8.894 3.096,9.967 5.32,20.162 7.338,28.727 -2.006,-2.102 -4.017,-4.182 -6.013,-6.234 -3.687,-3.771 -7.377,-7.411 -10.954,-10.921 -7.194,-6.979 -13.986,-13.391 -19.888,-18.791 -5.874,-5.427 -10.832,-9.88 -14.296,-13.002 -3.468,-3.114 -5.452,-4.893 -5.452,-4.893 0,0 1.801,1.964 4.952,5.399 3.141,3.443 7.639,8.354 12.95,14.316 5.341,5.933 11.453,12.954 17.895,20.547 0.938,1.12 1.895,2.275 2.846,3.417 -0.128,-0.019 -0.247,-0.03 -0.378,-0.056 -1.691,-0.242 -3.626,-0.625 -5.731,-1.187 -8.474,-2.118 -19.605,-6.968 -30.696,-11.971 -11.098,-4.978 -22.381,-10.015 -31.443,-11.999 -2.249,-0.53 -4.357,-0.801 -6.225,-0.975 -0.939,-0.023 -1.816,-0.047 -2.627,-0.069 -0.807,0.057 -1.55,0.107 -2.224,0.153 -1.328,0.227 -2.361,0.407 -3.035,0.675 -0.679,0.215 -1.045,0.329 -1.045,0.329 0,0 0.372,-0.082 1.07,-0.242 0.682,-0.205 1.724,-0.294 3.038,-0.407 0.661,0.012 1.389,0.023 2.184,0.036 0.789,0.089 1.643,0.185 2.553,0.289 1.808,0.323 3.828,0.759 5.976,1.465 5.698,1.764 12.261,4.921 19.108,8.55 -0.509,0.013 -1.015,0.025 -1.554,0.057 -6.481,0.376 -14.876,2.203 -22.74,5.381 -7.84,3.123 -15.324,7.625 -19.238,12.75 -0.964,1.272 -1.674,2.57 -2.115,3.789 -0.235,0.603 -0.328,1.213 -0.472,1.749 -0.042,0.56 -0.102,1.071 -0.11,1.53 0.064,0.934 0.153,1.642 0.326,2.108 0.13,0.469 0.198,0.725 0.198,0.725 0,0 -0.051,-0.256 -0.153,-0.735 -0.146,-0.476 -0.187,-1.195 -0.194,-2.095 0.038,-0.448 0.13,-0.943 0.201,-1.481 0.176,-0.516 0.296,-1.092 0.559,-1.664 0.498,-1.147 1.261,-2.35 2.264,-3.521 4.075,-4.704 11.628,-8.648 19.444,-11.21 7.837,-2.617 16.076,-3.86 22.134,-3.828 1.514,0.001 2.891,0.077 4.095,0.201 1.2,0.136 2.239,0.271 3.059,0.469 0.838,0.155 1.462,0.345 1.886,0.478 0.427,0.125 6.542,3.043 6.542,3.043 v -0.004 c 9.544,5.279 19.069,10.312 27.186,13.116 2.243,0.807 4.382,1.43 6.332,1.884 0.96,0.254 1.892,0.429 2.764,0.573 0.855,0.16 1.66,0.297 2.477,0.358 0.789,0.066 1.493,0.131 2.102,0.186 0.518,0.008 0.96,0.018 1.317,0.027 0.048,0.002 0.082,0.002 0.127,0.003 3.24,4.052 6.518,8.168 9.66,12.376 3.251,4.167 6.243,8.504 9.29,12.687 2.861,4.305 5.832,8.44 8.349,12.634 1.28,2.082 2.605,4.094 3.775,6.124 0.591,1.045 1.155,2.042 1.734,3.064 l -1.551,0.684 c -0.463,-0.479 -0.914,-0.966 -1.404,-1.433 -1.594,-1.553 -3.157,-3.175 -4.882,-4.771 -1.575,-1.488 -3.513,-3.218 -5.296,-4.731 -6.502,-5.548 -13.788,-10.828 -21.421,-15.591 l -13.214,-22.915 4.028,17.531 c -6.698,-3.678 -13.52,-6.908 -20.172,-9.556 -8.766,-3.475 -17.197,-6.003 -24.541,-7.534 -7.334,-1.594 -13.55,-2.215 -17.883,-2.487 -2.172,-0.128 -3.876,-0.185 -5.04,-0.184 -1.161,-0.014 -1.779,-0.025 -1.779,-0.025 0,0 0.616,0.07 1.77,0.204 1.152,0.112 2.837,0.34 4.97,0.685 4.263,0.7 10.32,1.926 17.322,4.207 7.024,2.212 14.968,5.499 23.091,9.702 7.977,4.145 16.101,9.237 23.761,14.915 -2.81,0.485 -6.749,0.677 -11.421,0.456 -11.03,-0.465 -25.897,-3.022 -40.787,-5.294 -14.879,-2.237 -30.018,-4.288 -41.407,-2.937 -2.829,0.354 -5.403,0.931 -7.576,1.755 -2.169,0.843 -3.911,1.95 -5.109,3.106 -1.209,1.155 -1.873,2.301 -2.266,3.09 -0.353,0.81 -0.511,1.253 -0.511,1.253 0,0 0.182,-0.435 0.573,-1.221 0.431,-0.762 1.145,-1.858 2.381,-2.926 1.23,-1.066 2.975,-2.052 5.124,-2.761 2.157,-0.693 4.694,-1.124 7.477,-1.33 11.211,-0.748 26.076,2.039 40.768,5.032 14.724,3.027 29.441,6.371 40.965,7.466 5.75,0.566 10.728,0.536 14.37,-0.138 1.365,-0.253 2.486,-0.55 3.449,-0.89 5.664,4.572 10.969,9.415 15.65,14.3 1.38,1.441 2.574,2.733 3.848,4.176 -0.628,-0.188 -1.249,-0.371 -1.889,-0.569 -2.234,-0.555 -4.528,-1.222 -6.908,-1.724 -4.75,-1.069 -9.775,-2.013 -14.985,-2.728 -5.208,-0.76 -10.607,-1.292 -16.088,-1.69 -5.488,-0.343 -11.059,-0.61 -16.631,-0.569 -5.571,-0.037 -11.135,0.212 -16.598,0.552 -5.46,0.441 -10.823,0.952 -15.976,1.783 -5.155,0.738 -10.091,1.811 -14.732,2.943 -2.311,0.595 -4.542,1.269 -6.693,1.901 -2.12,0.765 -4.199,1.382 -6.123,2.19 -3.871,1.555 -7.339,3.183 -10.23,4.951 -1.449,0.876 -2.817,1.665 -3.958,2.591 -1.153,0.902 -2.3,1.609 -3.143,2.494 -0.884,0.826 -1.672,1.563 -2.356,2.205 -0.626,0.702 -1.114,1.336 -1.531,1.828 -0.819,0.995 -1.257,1.525 -1.257,1.525 0,0 0.474,-0.498 1.363,-1.433 0.448,-0.46 0.975,-1.052 1.64,-1.7 0.721,-0.585 1.55,-1.259 2.48,-2.012 0.882,-0.806 2.071,-1.427 3.259,-2.229 1.176,-0.825 2.579,-1.507 4.055,-2.264 2.943,-1.526 6.446,-2.877 10.327,-4.124 1.927,-0.654 4.015,-1.117 6.121,-1.713 2.15,-0.467 4.367,-0.971 6.663,-1.392 4.609,-0.784 9.487,-1.488 14.576,-1.851 5.076,-0.457 10.351,-0.584 15.698,-0.638 5.351,0.047 10.78,0.187 16.195,0.609 5.415,0.343 10.805,0.987 16.085,1.691 5.275,0.762 10.436,1.644 15.367,2.724 4.942,1.036 9.647,2.276 14.034,3.593 2.203,0.632 4.279,1.403 6.32,2.059 1.164,0.457 2.307,0.885 3.425,1.315 0.006,0.026 0.015,0.042 0.021,0.07 0.299,0.895 0.634,1.885 0.997,2.964 0.369,1.084 0.801,2.18 1.164,3.749 0.743,3.004 1.74,6.163 2.517,10.2 0.423,1.962 0.862,4.01 1.319,6.127 0.393,2.19 0.801,4.458 1.219,6.786 0.892,4.635 1.578,9.703 2.365,14.91 0.758,5.214 1.361,10.692 2.038,16.231 0.045,0.502 0.1,1.004 0.146,1.509 l -0.122,0.042 c 0,0 0.058,0.149 0.171,0.433 0.478,4.928 1.057,9.922 1.386,14.929 0.216,2.841 0.433,5.683 0.646,8.514 0.201,2.83 0.308,5.639 0.464,8.438 0.356,5.607 0.453,11.069 0.593,16.373 0.092,2.809 0.089,5.527 0.074,8.184 l -0.113,0.035 c 0,0 0.046,0.121 0.113,0.3 -0.013,2.04 -0.028,4.043 -0.021,6.015 -3.2,2.343 -7.137,4.479 -11.814,6.095 -5.29,1.848 -11.503,3.016 -18.304,3.45 -6.822,0.438 -14.138,0.179 -21.875,-0.618 -4.046,-0.413 -8.215,-0.96 -12.444,-1.584 -0.512,-0.108 -1.03,-0.217 -1.566,-0.329 -1.261,-0.332 -2.587,-0.68 -3.97,-1.045 -2.752,-0.79 -5.714,-1.741 -8.791,-2.927 -3.081,-1.176 -6.256,-2.616 -9.498,-4.216 -3.19,-1.692 -6.475,-3.503 -9.64,-5.626 -3.215,-2.055 -6.296,-4.421 -9.309,-6.877 -2.971,-2.506 -5.823,-5.166 -8.459,-7.959 -2.59,-2.825 -5.07,-5.7 -7.169,-8.7 -2.108,-2.99 -4.026,-5.989 -5.509,-9.005 -1.505,-3.001 -2.748,-5.948 -3.535,-8.777 -0.472,-1.397 -0.69,-2.787 -0.998,-4.093 -0.155,-1.325 -0.427,-2.582 -0.427,-3.779 -0.027,-0.597 -0.051,-1.177 -0.076,-1.734 0.031,-0.559 0.06,-1.095 0.086,-1.614 0.006,-1.044 0.246,-1.971 0.367,-2.829 0.368,-1.673 0.764,-2.989 1.189,-3.828 0.377,-0.855 0.579,-1.31 0.579,-1.31 0,0 -0.239,0.437 -0.686,1.26 -0.484,0.793 -0.996,2.088 -1.516,3.775 -0.19,0.856 -0.513,1.795 -0.607,2.856 -0.073,0.53 -0.147,1.08 -0.225,1.654 -0.022,0.574 -0.045,1.17 -0.068,1.787 -0.095,1.238 0.071,2.541 0.125,3.933 0.205,1.367 0.318,2.837 0.686,4.314 0.578,2.995 1.608,6.145 2.919,9.383 1.285,3.256 3.015,6.519 4.953,9.805 1.93,3.299 4.256,6.491 6.725,9.66 2.508,3.133 5.259,6.158 8.163,9.039 2.946,2.833 5.99,5.587 9.208,8.036 1.53,1.218 3.096,2.358 4.677,3.451 -1.225,-0.234 -2.441,-0.461 -3.662,-0.693 -16.597,-3.157 -33.309,-6.293 -49.203,-7.988 -9.233,-0.992 -18.225,-1.451 -26.631,-1.104 -0.365,-0.356 -0.861,-0.839 -1.571,-1.463 -1.484,-1.341 -3.613,-3.112 -6.264,-5.128 -5.279,-4.042 -12.563,-8.977 -19.667,-14.127 -7.057,-5.161 -14.051,-10.599 -17.917,-15.916 -0.977,-1.309 -1.702,-2.63 -2.178,-3.862 -0.232,-0.621 -0.426,-1.209 -0.5,-1.781 -0.147,-0.559 -0.118,-1.088 -0.131,-1.565 0.046,-0.944 0.205,-1.697 0.423,-2.161 0.185,-0.481 0.283,-0.737 0.283,-0.737 0,0 -0.109,0.252 -0.318,0.724 -0.237,0.457 -0.433,1.207 -0.523,2.168 -0.008,0.483 -0.061,1.027 0.064,1.603 0.052,0.588 0.222,1.199 0.431,1.845 0.43,1.283 1.115,2.667 2.048,4.043 3.699,5.589 10.517,11.381 17.373,16.879 6.901,5.486 13.956,10.738 18.971,14.945 2.246,1.87 4.066,3.515 5.371,4.776 -4.521,0.349 -8.864,0.933 -12.917,1.871 -6.289,1.431 -11.854,3.705 -16.26,6.549 -4.43,2.811 -7.675,6.121 -9.879,9.116 -2.221,3.003 -3.533,5.624 -4.342,7.432 -0.785,1.82 -1.152,2.81 -1.152,2.81 0,0 0.425,-0.97 1.315,-2.732 0.912,-1.747 2.371,-4.272 4.718,-7.081 2.336,-2.804 5.679,-5.823 10.102,-8.273 4.399,-2.481 9.86,-4.343 15.992,-5.361 12.298,-2.092 27.031,-1.029 42.471,1.564 15.482,2.585 31.793,6.661 48.157,10.791 4.418,1.117 8.843,2.232 13.264,3.331 -4.165,0.883 -8.434,1.933 -12.661,3.136 -11.316,3.197 -22.389,7.416 -29.911,12.144 -1.847,1.233 -3.522,2.397 -4.81,3.683 -1.339,1.222 -2.271,2.55 -2.828,3.724 -0.518,1.207 -0.606,2.263 -0.504,2.933 0.131,0.671 0.199,1.03 0.199,1.03 0,0 -0.028,-0.36 -0.081,-1.036 -0.028,-0.662 0.173,-1.656 0.784,-2.724 0.649,-1.043 1.65,-2.182 3.054,-3.199 1.346,-1.078 3.088,-2.021 4.978,-2.997 7.732,-3.735 18.954,-6.636 30.253,-8.5 11.301,-1.894 22.767,-2.674 31.129,-2.435 2.093,0.056 3.988,0.168 5.637,0.332 1.627,0.144 3.108,0.354 4.116,0.543 0.509,0.095 0.966,0.18 1.362,0.254 0.475,0.115 0.884,0.215 1.213,0.295 0.661,0.164 1.011,0.25 1.011,0.25 l 0.037,-0.192 c 0.862,0.15 1.725,0.312 2.584,0.453 7.944,1.306 15.936,2.179 23.624,2.181 7.693,0.018 15.171,-0.826 21.987,-2.704 1.049,-0.284 2.075,-0.602 3.087,-0.934 -0.006,0.007 -0.012,0.014 -0.021,0.024 -0.543,0.525 -1.115,1.074 -1.713,1.646 -1.2,1.145 -2.443,2.445 -4.043,3.613 -1.533,1.228 -3.136,2.569 -5.062,3.772 -0.932,0.631 -1.892,1.279 -2.873,1.941 -1.036,0.604 -2.099,1.221 -3.184,1.85 -4.318,2.57 -9.379,4.909 -14.805,7.289 -5.507,2.255 -11.412,4.52 -17.692,6.566 -12.517,4.196 -26.283,7.95 -40.077,11.85 -6.899,1.95 -13.81,3.939 -20.58,6.069 -4.129,1.261 -8.186,2.632 -12.167,4.045 -0.461,-0.402 -1.099,-0.966 -1.907,-1.679 -1.006,-0.785 -2.511,-1.784 -4.098,-2.811 -1.648,-0.745 -3.42,-1.833 -5.528,-2.415 -2.059,-0.791 -4.339,-1.216 -6.725,-1.707 -2.394,-0.28 -4.905,-0.603 -7.471,-0.612 -1.29,-0.07 -2.587,-0.058 -3.892,0.002 -1.304,0.061 -2.634,0.032 -3.946,0.169 -0.909,0.066 -1.819,0.146 -2.732,0.226 -0.081,-0.323 -0.186,-0.681 -0.344,-1.117 -0.165,-0.529 -0.366,-1.099 -0.671,-1.649 -0.277,-0.573 -0.578,-1.189 -1.021,-1.777 -0.769,-1.255 -1.958,-2.407 -3.292,-3.537 -1.401,-1.039 -2.989,-2.042 -4.767,-2.81 -1.768,-0.783 -3.671,-1.473 -5.664,-2.016 -3.978,-1.143 -8.27,-1.887 -12.534,-2.644 -4.266,-0.746 -8.527,-1.449 -12.457,-2.373 -1.965,-0.457 -3.853,-0.956 -5.613,-1.521 -1.766,-0.549 -3.39,-1.19 -4.874,-1.827 -0.724,-0.354 -1.418,-0.694 -2.078,-1.016 -0.637,-0.368 -1.243,-0.713 -1.811,-1.041 -1.091,-0.73 -2.036,-1.38 -2.743,-2.008 -0.753,-0.574 -1.242,-1.139 -1.608,-1.487 -0.36,-0.357 -0.552,-0.549 -0.552,-0.549 0,0 0.182,0.2 0.525,0.572 0.353,0.366 0.818,0.955 1.547,1.565 0.685,0.665 1.605,1.359 2.672,2.147 0.56,0.356 1.154,0.735 1.783,1.134 0.654,0.358 1.339,0.732 2.056,1.124 1.468,0.711 3.088,1.437 4.848,2.071 1.754,0.652 3.639,1.243 5.603,1.793 3.927,1.111 8.177,2.011 12.401,2.947 4.216,0.944 8.433,1.878 12.207,3.151 1.898,0.612 3.661,1.347 5.258,2.139 1.611,0.781 2.964,1.743 4.13,2.684 1.083,1.018 2.024,1.999 2.584,3.037 0.337,0.482 0.549,0.99 0.749,1.457 0.234,0.46 0.355,0.886 0.455,1.268 0.07,0.194 0.127,0.392 0.175,0.588 -0.725,0.081 -1.449,0.152 -2.171,0.246 -2.65,0.285 -5.257,0.744 -7.839,1.107 -2.559,0.437 -5.081,0.868 -7.521,1.286 -4.848,0.904 -9.38,1.75 -13.26,2.475 -7.753,1.472 -12.918,2.453 -12.918,2.453 0,0 5.239,-0.468 13.099,-1.17 3.925,-0.339 8.506,-0.734 13.414,-1.156 2.45,-0.173 4.982,-0.353 7.556,-0.535 2.567,-0.105 5.178,-0.305 7.774,-0.323 2.602,-0.089 5.188,-0.062 7.718,0.006 1.272,-0.007 2.505,0.147 3.735,0.209 1.23,0.063 2.435,0.173 3.597,0.354 2.364,0.235 4.543,0.759 6.606,1.197 1.983,0.634 3.872,1.167 5.435,1.972 1.666,0.621 2.896,1.636 4.118,2.294 0.556,0.481 1.053,0.872 1.515,1.246 -5.967,2.437 -11.725,4.854 -16.933,7.751 -2.8,1.369 -5.33,3.112 -7.861,4.583 -1.222,0.818 -2.394,1.682 -3.552,2.495 -1.159,0.818 -2.311,1.6 -3.33,2.52 -2.093,1.76 -4.122,3.404 -5.789,5.268 -0.861,0.898 -1.728,1.74 -2.51,2.615 -0.724,0.931 -1.426,1.832 -2.107,2.706 -0.651,0.894 -1.397,1.668 -1.903,2.574 -0.532,0.884 -1.044,1.738 -1.535,2.555 -0.48,0.825 -0.982,1.589 -1.382,2.363 -0.349,0.798 -0.683,1.563 -1.002,2.285 -0.592,1.46 -1.279,2.697 -1.596,3.882 -0.338,1.173 -0.625,2.169 -0.859,2.977 -0.465,1.613 -0.712,2.47 -0.712,2.47 0,0 0.311,-0.839 0.89,-2.412 0.288,-0.784 0.646,-1.752 1.064,-2.887 0.396,-1.142 1.168,-2.327 1.853,-3.715 0.362,-0.686 0.739,-1.409 1.139,-2.167 0.447,-0.728 0.998,-1.443 1.526,-2.214 0.533,-0.759 1.092,-1.554 1.669,-2.376 0.551,-0.841 1.34,-1.547 2.033,-2.366 0.718,-0.796 1.457,-1.618 2.221,-2.466 0.818,-0.79 1.723,-1.546 2.61,-2.352 1.73,-1.672 3.815,-3.122 5.946,-4.667 1.034,-0.811 2.206,-1.484 3.382,-2.194 1.179,-0.704 2.358,-1.451 3.592,-2.151 2.566,-1.25 5.087,-2.742 7.911,-3.874 5.484,-2.553 11.58,-4.574 17.869,-6.621 6.362,-1.882 12.97,-3.706 19.795,-5.261 4.653,-1.101 9.394,-2.127 14.16,-3.133 -0.003,0.001 -0.003,0.005 -0.003,0.007 -1.247,2.373 -2.316,5.079 -3.349,8.02 -4.068,11.762 -6.871,27.441 -11.947,42.433 -1.29,3.727 -2.648,7.438 -4.26,10.959 -1.545,3.558 -3.349,6.915 -5.248,10.074 -1.012,1.535 -1.929,3.11 -3.027,4.501 -0.528,0.714 -1.047,1.42 -1.564,2.119 -0.562,0.658 -1.12,1.308 -1.668,1.951 -2.188,2.582 -4.543,4.766 -6.831,6.647 -2.317,1.842 -4.559,3.408 -6.679,4.572 -2.05,1.302 -4.044,2.037 -5.602,2.822 -1.607,0.681 -2.919,1.085 -3.794,1.425 -0.882,0.319 -1.353,0.49 -1.353,0.49 0,0 0.479,-0.14 1.379,-0.402 0.895,-0.28 2.239,-0.602 3.896,-1.181 1.611,-0.685 3.678,-1.299 5.834,-2.48 2.228,-1.041 4.61,-2.482 7.104,-4.212 2.461,-1.771 5.03,-3.862 7.457,-6.373 0.609,-0.627 1.228,-1.263 1.851,-1.906 0.581,-0.686 1.166,-1.379 1.756,-2.078 1.232,-1.372 2.28,-2.925 3.434,-4.449 2.171,-3.131 4.26,-6.488 6.09,-10.043 1.895,-3.529 3.538,-7.242 5.11,-10.977 6.161,-14.985 10.085,-30.73 14.601,-41.398 1.124,-2.65 2.246,-5.001 3.397,-6.872 0.284,-0.469 0.561,-0.922 0.829,-1.358 0.29,-0.395 0.573,-0.777 0.844,-1.142 0.512,-0.774 1.079,-1.304 1.554,-1.827 0.497,-0.607 0.85,-0.742 1.155,-1.051 0.171,-0.137 0.25,-0.257 0.451,-0.394 0.244,-0.14 0.463,-0.27 0.661,-0.385 12.176,-2.489 24.337,-4.959 35.825,-7.902 6.612,-1.638 12.98,-3.555 19.013,-5.534 6.003,-2.125 11.685,-4.265 16.802,-6.814 1.282,-0.627 2.541,-1.243 3.766,-1.842 1.203,-0.688 2.377,-1.358 3.522,-2.013 1.301,-0.698 2.52,-1.466 3.699,-2.247 -1.551,3.972 -3.248,7.953 -5.113,11.919 -3.869,8.262 -8.306,16.497 -13.166,24.537 -3.269,5.451 -6.725,10.809 -10.268,16.079 -0.982,-0.289 -2.17,-0.665 -3.432,-0.96 -1.377,-0.308 -2.919,-0.697 -4.61,-0.962 -1.685,-0.329 -3.516,-0.557 -5.445,-0.789 -1.938,-0.194 -3.97,-0.372 -6.075,-0.438 -1.052,-0.023 -2.118,-0.048 -3.2,-0.073 -1.079,0.03 -2.173,0.06 -3.276,0.089 -2.193,0.038 -4.421,0.313 -6.624,0.528 -2.206,0.341 -4.4,0.604 -6.523,1.132 -2.137,0.409 -4.193,1.022 -6.162,1.621 -1.983,0.547 -3.812,1.388 -5.567,2.014 -1.724,0.747 -3.306,1.554 -4.771,2.24 -1.43,0.786 -2.7,1.57 -3.831,2.227 -1.154,0.621 -2.032,1.38 -2.809,1.901 -1.521,1.091 -2.386,1.713 -2.386,1.713 0,0 0.966,-0.455 2.654,-1.251 0.856,-0.37 1.822,-0.942 3.06,-1.34 1.215,-0.432 2.565,-0.958 4.055,-1.456 1.529,-0.396 3.16,-0.883 4.903,-1.285 1.779,-0.283 3.595,-0.752 5.54,-0.919 1.928,-0.218 3.909,-0.434 5.944,-0.444 2.017,-0.13 4.08,0.01 6.116,0.063 2.044,0.182 4.076,0.291 6.057,0.627 0.99,0.155 1.968,0.308 2.937,0.459 0.957,0.199 1.902,0.399 2.831,0.593 1.853,0.401 3.62,0.892 5.275,1.373 1.645,0.516 3.193,1.002 4.579,1.551 1.408,0.491 2.63,1.063 3.727,1.525 0.082,0.038 0.152,0.072 0.231,0.108 -4.826,6.821 -9.738,13.462 -14.57,19.873 -2.95,3.913 -5.863,7.736 -8.718,11.483 l -0.512,0.22 c 0,0 0.045,0.1 0.131,0.281 -6.682,8.779 -12.974,17.088 -18.413,24.878 -0.412,0.019 -0.884,0.06 -1.28,0.141 -0.869,0.122 -1.853,0.354 -2.95,0.672 -1.103,0.308 -2.303,0.718 -3.595,1.188 -5.171,1.894 -11.707,4.978 -18.197,8.136 -6.485,3.16 -12.921,6.397 -17.845,8.608 -2.46,1.106 -4.546,1.952 -6.044,2.434 -1.494,0.501 -2.399,0.579 -2.399,0.579 0,0 0.91,-0.028 2.437,-0.451 1.531,-0.401 3.667,-1.136 6.193,-2.111 5.054,-1.949 11.667,-4.839 18.304,-7.64 6.63,-2.795 13.306,-5.506 18.392,-7.059 1.267,-0.385 2.432,-0.714 3.461,-0.939 0.445,-0.105 0.856,-0.188 1.246,-0.257 -3.884,5.697 -7.224,11.136 -9.866,16.144 -2.733,5.225 -4.64,10.051 -5.689,14.157 -1.075,4.11 -1.219,7.479 -1.048,9.722 0.021,1.13 0.22,1.977 0.299,2.551 0.091,0.571 0.14,0.868 0.14,0.868 0,0 -0.025,-0.3 -0.07,-0.877 -0.034,-0.577 -0.159,-1.429 -0.089,-2.548 0.012,-2.222 0.421,-5.502 1.792,-9.41 1.347,-3.913 3.577,-8.44 6.658,-13.318 3.099,-4.871 6.956,-10.137 11.457,-15.667 5.808,-7.178 12.618,-14.854 19.94,-23.014 0.033,0.093 0.064,0.177 0.097,0.274 0.424,1.612 1.079,3.369 1.484,5.411 0.226,1.014 0.466,2.068 0.71,3.162 0.216,1.101 0.381,2.257 0.588,3.44 0.454,2.357 0.634,4.894 0.954,7.51 0.131,2.626 0.43,5.35 0.39,8.125 0.006,1.391 0.015,2.791 0.024,4.197 -0.067,1.405 -0.137,2.816 -0.204,4.226 -0.036,1.418 -0.174,2.824 -0.338,4.223 -0.159,1.399 -0.28,2.804 -0.463,4.186 -0.521,2.728 -0.811,5.486 -1.527,8.046 -0.314,1.296 -0.624,2.568 -0.926,3.815 -0.393,1.219 -0.777,2.414 -1.152,3.576 -0.683,2.358 -1.645,4.46 -2.483,6.43 -0.762,2.017 -1.813,3.675 -2.624,5.22 -0.42,0.767 -0.816,1.483 -1.182,2.144 -0.43,0.621 -0.829,1.191 -1.186,1.704 -1.44,2.068 -2.263,3.25 -2.263,3.25 0,0 0.929,-1.105 2.55,-3.038 0.408,-0.485 0.857,-1.022 1.35,-1.608 0.426,-0.632 0.886,-1.316 1.38,-2.045 0.954,-1.483 2.182,-3.082 3.132,-5.046 1.031,-1.921 2.21,-3.986 3.121,-6.32 0.487,-1.156 0.993,-2.343 1.508,-3.557 0.424,-1.247 0.859,-2.521 1.301,-3.816 0.972,-2.575 1.527,-5.353 2.316,-8.134 0.317,-1.404 0.573,-2.833 0.865,-4.264 0.299,-1.432 0.573,-2.876 0.744,-4.331 0.204,-1.454 0.402,-2.908 0.606,-4.359 0.122,-1.457 0.247,-2.909 0.369,-4.351 0.298,-2.886 0.253,-5.741 0.356,-8.508 -0.085,-2.766 -0.039,-5.453 -0.292,-7.996 -0.101,-1.271 -0.171,-2.514 -0.296,-3.713 -0.155,-1.198 -0.308,-2.357 -0.454,-3.469 -0.24,-2.233 -0.777,-4.268 -1.094,-6.085 -0.441,-1.855 -0.953,-3.532 -1.328,-4.889 -0.012,-0.032 -0.021,-0.06 -0.034,-0.091 2.094,-2.334 4.208,-4.69 6.353,-7.098 11.954,-13.445 24.572,-28.086 35.94,-43.945 5.702,-7.91 11.052,-16.144 15.879,-24.584 1.998,-3.491 3.863,-7.034 5.646,-10.601 1.374,4.515 2.776,10.631 3.873,18.06 0.661,4.421 1.209,9.295 1.669,14.492 -0.265,0.725 -0.554,1.463 -0.859,2.229 -0.5,1.396 -1.173,2.809 -1.892,4.282 -1.389,2.971 -3.239,6.065 -5.363,9.291 -2.188,3.193 -4.708,6.489 -7.529,9.822 -5.643,6.681 -12.502,13.475 -18.926,21.06 -3.196,3.79 -6.27,7.796 -8.799,12.122 -2.551,4.303 -4.55,8.881 -5.842,13.474 -1.31,4.604 -1.684,9.206 -1.785,13.488 0.109,4.293 0.521,8.296 1.28,11.9 0.676,3.622 1.682,6.824 2.519,9.663 0.991,2.791 1.859,5.212 2.645,7.175 1.683,3.873 2.645,6.087 2.645,6.087 0,0 -0.716,-2.298 -1.971,-6.319 -0.567,-2.024 -1.164,-4.508 -1.838,-7.339 -0.524,-2.87 -1.164,-6.088 -1.435,-9.635 -0.356,-3.531 -0.329,-7.366 -0.003,-11.344 0.53,-3.953 1.316,-8.066 2.929,-12.03 1.596,-3.961 3.787,-7.792 6.471,-11.387 2.67,-3.61 5.863,-6.962 9.245,-10.194 6.765,-6.453 14.321,-12.479 21.089,-18.918 3.175,-3.02 6.155,-6.13 8.882,-9.272 0.411,10.409 0.649,21.376 0.939,32.395 0.085,3.184 0.173,6.373 0.277,9.553 -0.092,0.088 -0.195,0.189 -0.314,0.308 -0.476,0.487 -1.13,1.071 -2.039,2.051 -0.92,1.108 -2.172,2.504 -3.275,4.033 -0.997,1.519 -2.282,3.171 -3.34,5.077 -0.557,0.942 -1.139,1.924 -1.74,2.941 -0.548,1.033 -1.112,2.1 -1.694,3.198 -1.197,2.176 -2.233,4.555 -3.382,6.977 -1.072,2.456 -2.163,4.988 -3.169,7.599 -0.987,2.617 -2.005,5.264 -2.861,7.967 -0.936,2.669 -1.704,5.398 -2.48,8.067 -0.768,2.673 -1.378,5.347 -2.005,7.911 -0.488,2.608 -1.109,5.081 -1.427,7.491 -0.359,2.398 -0.737,4.647 -0.877,6.763 -0.21,2.1 -0.375,4.022 -0.359,5.741 -0.019,1.713 -0.119,3.193 0.018,4.423 0.161,2.438 0.256,3.832 0.256,3.832 0,0 0.067,-1.392 0.188,-3.826 0.004,-1.214 0.275,-2.677 0.491,-4.351 0.18,-1.676 0.564,-3.545 1.009,-5.573 0.372,-2.037 1.002,-4.201 1.624,-6.49 0.576,-2.297 1.469,-4.652 2.233,-7.113 0.905,-2.427 1.792,-4.941 2.837,-7.444 1.054,-2.501 2.103,-5.04 3.309,-7.513 1.125,-2.506 2.404,-4.938 3.639,-7.335 1.255,-2.383 2.58,-4.68 3.863,-6.886 1.356,-2.16 2.593,-4.293 3.94,-6.176 0.655,-0.952 1.292,-1.878 1.907,-2.774 0.652,-0.854 1.283,-1.682 1.887,-2.474 0.767,-1.073 1.566,-1.968 2.312,-2.807 0.259,5.312 0.561,10.569 0.981,15.666 1.018,12.414 2.652,24.038 5.385,33.734 1.386,4.838 2.998,9.191 4.899,12.831 1.889,3.642 4.013,6.563 6.058,8.663 2.041,2.109 3.945,3.409 5.271,4.2 1.359,0.749 2.099,1.098 2.099,1.098 0,0 -0.703,-0.439 -1.943,-1.33 -1.21,-0.934 -2.907,-2.419 -4.619,-4.665 -1.713,-2.241 -3.392,-5.244 -4.766,-8.901 -1.39,-3.657 -2.432,-7.972 -3.203,-12.733 -1.505,-9.548 -1.758,-20.913 -1.313,-33.083 0.445,-12.18 1.551,-25.187 2.754,-38.246 0.604,-6.543 1.229,-13.103 1.814,-19.586 0.727,0.871 1.468,1.754 2.242,2.662 4.507,5.314 9.737,11.284 14.814,18.049 2.57,3.362 5.035,6.949 7.426,10.674 2.399,3.724 4.568,7.655 6.631,11.654 1.943,4.047 3.839,8.146 5.305,12.337 1.566,4.159 2.755,8.378 3.808,12.496 0.446,2.08 0.881,4.125 1.311,6.127 0.323,2.028 0.639,4.011 0.944,5.941 0.211,1.948 0.411,3.843 0.612,5.677 0.153,1.837 0.217,3.621 0.324,5.335 0.134,1.715 0.089,3.359 0.106,4.925 -0.012,1.567 0.062,3.058 -0.024,4.453 -0.15,2.789 -0.183,5.241 -0.384,7.242 -0.378,4.013 -0.597,6.304 -0.597,6.304 0,0 0.411,-2.268 1.13,-6.242 0.369,-1.987 0.61,-4.429 0.997,-7.225 0.204,-1.397 0.259,-2.898 0.402,-4.477 0.116,-1.579 0.301,-3.242 0.314,-4.981 0.036,-1.742 0.128,-3.558 0.128,-5.438 -0.043,-1.884 -0.089,-3.831 -0.134,-5.833 -0.146,-1.999 -0.299,-4.056 -0.451,-6.155 -0.269,-2.096 -0.539,-4.238 -0.816,-6.414 -0.486,-2.908 -1.049,-5.888 -1.738,-8.882 0.743,0.088 1.542,0.179 2.444,0.286 1.292,0.257 2.749,0.548 4.34,0.864 1.602,0.233 3.335,0.886 5.185,1.375 1.877,0.46 3.735,1.277 5.717,2.004 0.999,0.347 1.98,0.774 2.949,1.262 0.984,0.467 1.983,0.938 2.986,1.414 1.956,1.048 3.943,2.151 5.86,3.365 1.88,1.267 3.805,2.499 5.53,3.937 1.816,1.336 3.413,2.863 5.017,4.299 0.788,0.73 1.485,1.52 2.214,2.257 0.734,0.737 1.419,1.483 2.029,2.256 0.625,0.763 1.259,1.49 1.828,2.226 0.536,0.758 1.055,1.493 1.555,2.195 0.529,0.693 0.898,1.427 1.306,2.102 0.381,0.688 0.82,1.311 1.076,1.962 0.591,1.272 1.108,2.394 1.334,3.377 0.354,0.963 0.412,1.754 0.455,2.299 0.057,0.546 0.088,0.838 0.088,0.838 0,0 0,-0.292 0.006,-0.84 0.015,-0.551 0.046,-1.369 -0.201,-2.376 -0.125,-1.036 -0.515,-2.224 -0.978,-3.596 -0.189,-0.704 -0.561,-1.374 -0.872,-2.123 -0.341,-0.735 -0.642,-1.542 -1.099,-2.303 -0.434,-0.778 -0.881,-1.591 -1.344,-2.43 -0.5,-0.82 -1.063,-1.634 -1.618,-2.49 -0.543,-0.872 -1.164,-1.718 -1.831,-2.556 -0.665,-0.842 -1.302,-1.744 -2.03,-2.588 -1.484,-1.665 -2.98,-3.444 -4.707,-5.041 -1.64,-1.701 -3.496,-3.212 -5.333,-4.767 -1.871,-1.502 -3.836,-2.9 -5.795,-4.247 -1.012,-0.624 -2.015,-1.244 -3.008,-1.858 -0.981,-0.638 -1.984,-1.212 -3.007,-1.705 -2.029,-1.017 -3.955,-2.12 -5.918,-2.847 -1.959,-0.765 -3.714,-1.649 -5.545,-2.148 -1.798,-0.564 -3.446,-1.078 -4.909,-1.535 -1.396,-0.321 -2.608,-0.603 -3.607,-0.834 -1.074,-0.242 -1.887,-0.424 -2.423,-0.545 -0.969,-3.091 -2.087,-6.163 -3.254,-9.221 -1.8,-4.361 -3.737,-8.685 -5.911,-12.794 -2.17,-4.109 -4.444,-8.09 -6.817,-11.813 -4.689,-7.482 -9.561,-14.093 -13.541,-19.679 -1.996,-2.792 -3.775,-5.327 -5.189,-7.56 -1.466,-2.234 -2.484,-4.145 -3.218,-5.663 -0.158,-0.37 -0.305,-0.719 -0.441,-1.048 -0.056,-0.125 -0.108,-0.244 -0.16,-0.362 0.016,-0.205 0.035,-0.417 0.049,-0.621 0.704,-9.987 1.134,-19.531 1.122,-28.268 0.158,-0.573 0.243,-0.881 0.243,-0.881 l -0.247,-0.056 c -0.008,-1.83 -0.03,-3.638 -0.082,-5.392 -0.021,-0.794 -0.057,-1.565 -0.088,-2.343 1.709,2.477 3.565,4.899 5.357,7.419 4.379,6.236 9.351,12.287 14.218,18.559 5.116,6.064 10.152,12.334 15.549,18.267 5.262,6.056 10.738,11.891 16.113,17.633 5.425,5.692 10.813,11.234 16.1,16.509 5.32,5.246 10.43,10.332 15.418,15.011 4.924,4.737 9.657,9.131 14.05,13.156 4.355,4.062 8.428,7.694 12.029,10.924 3.587,3.24 6.735,6.038 9.358,8.313 5.217,4.573 8.2,7.184 8.2,7.184 0,0 -2.663,-2.936 -7.325,-8.071 -2.34,-2.556 -5.147,-5.691 -8.334,-9.316 -3.202,-3.612 -6.822,-7.673 -10.671,-12.19 -3.891,-4.483 -8.068,-9.363 -12.392,-14.601 -4.388,-5.178 -8.852,-10.774 -13.486,-16.533 -0.908,-1.142 -1.822,-2.299 -2.733,-3.459 0.277,0.002 0.554,0 0.835,0.015 2.089,0.057 4.423,0.012 7.038,0.151 2.642,0.216 5.503,0.448 8.529,0.694 3.02,0.414 6.219,0.793 9.519,1.287 3.285,0.604 6.704,1.125 10.149,1.843 3.437,0.766 6.963,1.404 10.434,2.308 3.482,0.847 6.971,1.683 10.375,2.645 3.419,0.902 6.761,1.872 9.991,2.845 6.469,1.91 12.447,3.899 17.563,5.639 10.214,3.534 16.903,6.249 16.903,6.249 0,0 -6.476,-3.188 -16.437,-7.458 -4.99,-2.109 -10.838,-4.53 -17.188,-6.916 -3.169,-1.209 -6.459,-2.426 -9.832,-3.58 -3.356,-1.215 -6.811,-2.312 -10.269,-3.42 -3.44,-1.165 -6.963,-2.07 -10.396,-3.096 -3.444,-0.982 -6.89,-1.766 -10.206,-2.622 -3.339,-0.749 -6.602,-1.379 -9.686,-2.027 -3.126,-0.481 -6.082,-0.938 -8.813,-1.359 -2.766,-0.35 -5.395,-0.497 -7.69,-0.71 -2.346,-0.259 -4.223,-0.198 -5.805,-0.217 -0.359,-0.002 -0.697,-0.003 -1.02,-0.006 -1.728,-2.25 -3.458,-4.517 -5.193,-6.811 -4.61,-6.221 -9.293,-12.522 -13.72,-18.986 -4.58,-6.362 -8.742,-12.98 -12.99,-19.368 -3.976,-6.557 -8.072,-12.885 -11.524,-19.259 -1.746,-3.177 -3.623,-6.214 -5.158,-9.327 -1.579,-3.084 -3.12,-6.103 -4.623,-9.042 -0.564,-1.047 -1.067,-2.101 -1.551,-3.151 0.106,-0.43 0.21,-0.837 0.32,-1.277 0.618,-2.38 0.926,-4.307 1.374,-6.552 0.265,-1.39 0.542,-2.837 0.823,-4.314 1.753,2.05 3.562,4.169 5.439,6.365 2.011,2.372 4.251,4.679 6.463,7.125 2.193,2.465 4.613,4.841 7.045,7.302 1.216,1.229 2.446,2.471 3.689,3.723 1.281,1.212 2.573,2.436 3.876,3.67 2.511,2.42 5.281,4.867 8.081,7.336 2.761,2.519 5.689,4.812 8.572,7.24 2.9,2.401 5.965,4.652 8.958,6.997 1.273,0.935 2.572,1.843 3.857,2.764 l 16.951,39.393 -7.73,-33.004 c 1.928,1.278 3.857,2.548 5.823,3.755 3.284,1.927 6.46,3.986 9.772,5.758 6.563,3.654 13.175,6.958 19.714,9.823 3.309,1.346 6.478,2.851 9.723,3.986 3.239,1.142 6.362,2.361 9.471,3.359 3.124,0.934 6.164,1.843 9.104,2.723 2.968,0.774 5.865,1.406 8.623,2.072 2.748,0.723 5.448,1.117 7.995,1.561 2.554,0.409 4.953,0.916 7.241,1.172 4.586,0.445 8.555,0.998 11.849,1.16 6.585,0.254 10.348,0.399 10.348,0.399 0,0 -3.738,-0.402 -10.275,-1.107 -3.259,-0.388 -7.172,-1.211 -11.669,-1.96 -2.244,-0.411 -4.586,-1.079 -7.076,-1.654 -2.48,-0.613 -5.107,-1.18 -7.767,-2.079 -2.672,-0.846 -5.472,-1.66 -8.324,-2.62 -2.825,-1.06 -5.741,-2.157 -8.74,-3.284 -2.97,-1.185 -5.947,-2.593 -9.025,-3.922 -3.083,-1.318 -6.081,-3.012 -9.208,-4.538 -6.17,-3.228 -12.374,-6.882 -18.492,-10.863 -3.09,-1.934 -6.039,-4.156 -9.083,-6.231 -3.002,-2.143 -5.903,-4.457 -8.862,-6.675 -1.371,-1.118 -2.717,-2.251 -4.08,-3.372 l -0.076,-0.329 -0.231,0.075 c -1.387,-1.144 -2.788,-2.281 -4.16,-3.436 -1.785,-1.612 -3.583,-3.193 -5.359,-4.784 3.418,-0.69 8.12,-1.106 13.757,-0.968 7.185,0.137 15.774,1.061 25.004,2.324 9.291,1.356 19.203,2.803 29.118,4.251 9.532,1.312 19.147,2.434 28.319,2.651 0.597,0.161 1.21,0.327 1.859,0.5 1.46,0.395 2.995,1.059 4.653,1.632 1.651,0.593 3.287,1.477 5.043,2.253 1.688,0.911 3.439,1.854 5.155,2.925 1.685,1.12 3.434,2.21 5.046,3.499 1.676,1.205 3.23,2.565 4.784,3.88 1.508,1.365 3.001,2.71 4.364,4.095 1.382,1.367 2.684,2.726 3.89,4.045 1.219,1.303 2.331,2.576 3.373,3.739 2.067,2.343 3.782,4.305 5.049,5.619 0.61,0.681 1.164,1.141 1.509,1.485 0.353,0.338 0.542,0.515 0.542,0.515 0,0 -0.18,-0.188 -0.518,-0.54 -0.326,-0.362 -0.856,-0.843 -1.432,-1.55 -1.203,-1.367 -2.82,-3.405 -4.775,-5.843 -0.987,-1.211 -2.041,-2.538 -3.205,-3.905 -1.149,-1.378 -2.392,-2.806 -3.72,-4.248 -1.308,-1.462 -2.752,-2.891 -4.217,-4.345 -1.512,-1.407 -3.027,-2.863 -4.678,-4.172 -1.581,-1.39 -3.315,-2.59 -4.991,-3.818 -1.709,-1.182 -3.468,-2.239 -5.168,-3.262 -1.761,-0.881 -3.406,-1.865 -5.079,-2.563 2.592,-0.115 5.127,-0.329 7.565,-0.694 4.358,-0.66 8.472,-1.75 11.945,-3.549 3.504,-1.721 6.225,-4.241 8.007,-6.825 1.756,-2.629 2.59,-5.261 3.073,-7.412 0.411,-2.18 0.545,-3.905 0.566,-5.081 0.019,-1.177 0.027,-1.802 0.027,-1.802 0,0 -0.057,0.622 -0.165,1.791 -0.112,1.163 -0.383,2.868 -0.947,4.962 -0.634,2.065 -1.643,4.53 -3.479,6.863 -1.866,2.29 -4.529,4.398 -7.902,5.742 -3.33,1.411 -7.263,2.14 -11.441,2.444 -4.19,0.298 -8.654,0.152 -13.255,-0.275 -9.211,-0.85 -18.974,-2.757 -28.709,-4.88 -19.481,-4.283 -38.933,-9.405 -54.566,-10.925 -7.798,-0.794 -14.709,-0.6 -19.803,0.511 -1.272,0.266 -2.417,0.58 -3.426,0.912 -0.411,0.123 -0.834,0.279 -1.243,0.438 -0.161,-0.165 -0.329,-0.329 -0.487,-0.496 -2.481,-2.507 -4.924,-4.978 -7.316,-7.622 -1.174,-1.275 -2.338,-2.538 -3.489,-3.79 -1.11,-1.287 -2.209,-2.562 -3.297,-3.822 -2.17,-2.521 -4.33,-4.954 -6.268,-7.462 -1.103,-1.408 -2.206,-2.767 -3.285,-4.117 10.461,2.959 21.985,4.722 34.033,5.605 15.969,1.175 32.88,0.765 49.6,-0.92 16.716,-1.668 33.24,-4.666 48.402,-8.662 2.688,-0.713 5.318,-1.469 7.911,-2.246 1.797,0.38 4.085,0.865 6.781,1.435 6.491,1.368 15.136,3.211 23.597,5.708 8.428,2.499 16.772,5.727 21.979,9.829 1.325,0.984 2.367,2.084 3.236,3.098 0.417,0.523 0.755,1.052 1.088,1.526 0.262,0.516 0.505,0.991 0.725,1.418 0.323,0.907 0.563,1.629 0.606,2.15 0.089,0.512 0.134,0.785 0.134,0.785 0,0 -0.033,-0.275 -0.101,-0.789 -0.017,-0.528 -0.225,-1.261 -0.514,-2.196 -0.204,-0.443 -0.43,-0.935 -0.674,-1.47 -0.314,-0.494 -0.634,-1.049 -1.035,-1.599 -0.838,-1.07 -1.857,-2.24 -3.154,-3.301 -1.265,-1.104 -2.758,-2.143 -4.388,-3.159 -1.633,-1.006 -3.412,-1.967 -5.296,-2.878 -3.76,-1.832 -7.925,-3.436 -12.127,-4.899 -8.422,-2.895 -17.042,-5.13 -23.481,-6.786 -0.715,-0.185 -1.392,-0.359 -2.05,-0.529 9.951,-3.227 19.077,-6.883 26.918,-10.815 11.21,-5.61 19.754,-11.793 24.942,-16.889 1.348,-1.22 2.404,-2.464 3.386,-3.471 0.905,-1.083 1.694,-1.979 2.291,-2.745 1.152,-1.558 1.767,-2.388 1.767,-2.388"
           style="fill:#2f2e2f;fill-opacity:1;fill-rule:nonzero;stroke:none"
           id="path2578"
           inkscape:connector-curvature="0" /></g></g></g></svg>